Coordinates
version=1
nRows=7
nColumns=40
inDegrees=yes

Units are S.I. units (second, meters, Newtons, ...)
If the header above contains a line with 'inDegrees', this indicates whether rotational values are in degrees (yes) or radians (no).

endheader
time	pelvis_tilt	pelvis_list	pelvis_rotation	pelvis_tx	pelvis_ty	pelvis_tz	hip_flexion_r	hip_adduction_r	hip_rotation_r	knee_angle_r	knee_angle_r_beta	ankle_angle_r	subtalar_angle_r	mtp_angle_r	hip_flexion_l	hip_adduction_l	hip_rotation_l	knee_angle_l	knee_angle_l_beta	ankle_angle_l	subtalar_angle_l	mtp_angle_l	lumbar_extension	lumbar_bending	lumbar_rotation	arm_flex_r	arm_add_r	arm_rot_r	elbow_flex_r	pro_sup_r	wrist_flex_r	wrist_dev_r	arm_flex_l	arm_add_l	arm_rot_l	elbow_flex_l	pro_sup_l	wrist_flex_l	wrist_dev_l
      4.37500000	     14.26327667	      9.13291386	     -2.02403578	     -0.34631286	      1.07572068	     -0.73907600	      2.35870936	     -8.11639288	    -10.49658355	     33.46679269	      0.58410572	      3.23823477	      0.00000000	      0.00000000	     43.32958124	      2.52922443	     -0.98920319	      8.30190056	      0.14489550	     -5.95898492	      0.00000000	      0.00000000	    -17.63632914	     -4.43605402	      6.42135029	     89.92580924	    -15.70956191	     36.96278489	     30.77541629	     70.47281190	      0.00000000	      0.00000000	     89.91979818	     -9.13478369	     32.52407840	     32.72088176	     71.24745546	      0.00000000	      0.00000000
      4.38000000	     14.27947377	      9.02965868	     -1.99248667	     -0.34648390	      1.07535096	     -0.73911896	      2.42114229	     -8.06357614	    -10.64915818	     33.66028560	      0.58748281	      3.25887695	      0.00000000	      0.00000000	     43.42772999	      2.46567513	     -1.12827616	      8.47104495	      0.14784763	     -6.02712564	      0.00000000	      0.00000000	    -17.67892186	     -4.31254316	      6.45317270	     89.92618833	    -15.78725150	     35.26887020	     30.66694631	     81.51071100	      0.00000000	      0.00000000	     89.92010338	     -9.10715880	     30.90736542	     32.55097022	     83.60389185	      0.00000000	      0.00000000
      4.38500000	     14.29398365	      8.96232251	     -1.99610125	     -0.34666675	      1.07490949	     -0.73914033	      2.49004549	     -8.04374326	    -10.72454959	     33.83477189	      0.59052817	      3.36370595	      0.00000000	      0.00000000	     43.43714751	      2.41563987	     -1.06451177	      8.43234151	      0.14717212	     -6.05288180	      0.00000000	      0.00000000	    -17.71297171	     -4.22745097	      6.48141468	     89.92657748	    -15.81094763	     35.24034892	     30.73634797	     81.38274921	      0.00000000	      0.00000000	     89.92020803	     -9.09610354	     30.84184270	     32.53799991	     83.65496874	      0.00000000	      0.00000000
      4.39000000	     14.36496380	      8.93270682	     -2.02149153	     -0.34677980	      1.07451660	     -0.73910382	      2.49468047	     -8.06731036	    -10.81041827	     34.01853582	      0.59373546	      3.45984151	      0.00000000	      0.00000000	     43.38656999	      2.38721882	     -1.15606659	      8.39773485	      0.14656812	     -6.02378908	      0.00000000	      0.00000000	    -17.79082449	     -4.17998567	      6.51063723	     89.92667509	    -15.78081772	     35.09508869	     30.74428139	     81.45373863	      0.00000000	      0.00000000	     89.92040293	     -9.11832306	     30.90405173	     32.54347309	     83.62767389	      0.00000000	      0.00000000
      4.39500000	     14.37579943	      8.86397242	     -2.04257210	     -0.34694688	      1.07400029	     -0.73904276	      2.58558057	     -8.04584798	    -10.88774213	     34.23302938	      0.59747908	      3.57460110	      0.00000000	      0.00000000	     43.39583950	      2.31644402	     -1.09272262	      8.33317718	      0.14544138	     -6.10043859	      0.00000000	      0.00000000	    -17.81886361	     -4.10565074	      6.57857123	     89.92681429	    -15.84503864	     35.12082600	     30.83516971	     81.20957783	      0.00000000	      0.00000000	     89.92055604	     -9.07017996	     30.80808300	     32.54111221	     83.66052726	      0.00000000	      0.00000000
      4.40000000	     14.38072310	      8.81883927	     -2.06847660	     -0.34707871	      1.07345443	     -0.73904096	      2.68902318	     -8.06040591	    -10.97282861	     34.46405259	      0.60151119	      3.67913327	      0.00000000	      0.00000000	     43.44490137	      2.26463652	     -1.16169417	      8.35004200	      0.14573573	     -6.08015582	      0.00000000	      0.00000000	    -17.82867864	     -4.04642607	      6.61625872	     89.92713512	    -15.84991325	     35.04942626	     30.84531588	     81.41354071	      0.00000000	      0.00000000	     89.92065535	     -9.08352711	     30.80116836	     32.55138896	     83.64190903	      0.00000000	      0.00000000
      4.40500000	     14.25218273	      8.68972111	     -2.12325276	     -0.34768567	      1.07290357	     -0.73903757	      2.98741069	     -7.95922854	    -10.92274330	     34.69516379	      0.60554484	      3.66981338	      0.00000000	      0.00000000	     43.63334341	      2.10280112	     -1.12311147	      8.34934895	      0.14572363	     -6.18562416	      0.00000000	      0.00000000	    -17.75223844	     -3.90367276	      6.73124375	     89.92754153	    -15.86770110	     34.91268283	     30.94554510	     81.46440434	      0.00000000	      0.00000000	     89.92040424	     -9.05216337	     30.69373057	     32.53776235	     83.58194711	      0.00000000	      0.00000000
